<?xml version="1.0" encoding="utf-8"?>
<!-- Generator: Adobe Illustrator 21.1.0, SVG Export Plug-In . SVG Version: 6.00 Build 0)  -->
<svg version="1.1" id="Calque_1" xmlns="http://www.w3.org/2000/svg" xmlns:xlink="http://www.w3.org/1999/xlink" x="0px" y="0px"
	 viewBox="0 0 432 432" style="enable-background:new 0 0 432 432;" xml:space="preserve">
<style type="text/css">
	.st0{fill:#333333;}
	.st1{fill:#BF924C;}
	.st2{fill:#E6E6E6;}
	.st3{fill:#801422;}
	.st4{fill:#6F4436;}
	.st5{fill:#BE9B7B;}
	.st6{fill:#FBB03B;}
	.st7{fill:#D37A20;}
	.st8{fill:#1A1A1A;}
	.st9{fill:#EE7EB0;}
	.st10{fill:#FFD744;}
	.st11{fill:#78CFDE;}
	.st12{fill:#AA4B57;}
	.st13{fill:#B3B3B3;}
	.st14{fill:#66472D;}
	.st15{fill:#4C71A8;}
	.st16{fill:#D18FAF;}
	.st17{fill:#578FC8;}
	.st18{fill:#D9B442;}
	.st19{fill:#8C6E54;}
	.st20{fill:#3C2F2F;}
	.st21{fill:#9FAF88;}
	.st22{fill:#7E8D66;}
	.st23{fill:#D6A1AD;}
	.st24{fill:#FCD5D2;}
	.st25{fill:#BA2C38;}
	.st26{fill:#BF926B;}
	.st27{fill:#5B9DC1;}
	.st28{fill:#F4923E;}
	.st29{fill:#282C35;}
	.st30{fill:#EBB2A5;}
	.st31{fill:#CF6557;}
	.st32{fill:#7FB9BC;}
	.st33{fill:#154B67;}
	.st34{fill:#EAD5B6;}
	.st35{fill:#4D9164;}
	.st36{fill:#C59E73;}
	.st37{fill:#EEC7A0;}
	.st38{fill:#EC9294;}
	.st39{fill:#D2523D;}
	.st40{fill:#BEC1A4;}
	.st41{fill:#939176;}
	.st42{fill:#F8CACC;}
	.st43{fill:#F1949B;}
	.st44{fill:#59A5AD;}
	.st45{fill:#11937F;}
	.st46{fill:#406C70;}
	.st47{fill:#6FAFC6;}
	.st48{fill:#EF777F;}
	.st49{fill:#F3C186;}
	.st50{fill:#F6AD4B;}
	.st51{fill:none;}
	.st52{fill:#579B5E;}
	.st53{fill:#C69C6D;}
	.st54{fill:#4B8599;}
	.st55{fill:#D09596;}
	.st56{fill:#91B468;}
	.st57{fill:#F9C9CC;}
	.st58{fill:#2D302A;}
	.st59{fill:#D17475;}
	.st60{fill:#C1272D;}
	.st61{fill:#736357;}
	.st62{fill:#92B4C4;}
	.st63{fill:#A67C52;}
	.st64{fill:#F7931E;}
	.st65{fill:#B2151B;}
	.st66{fill:#D7A356;}
	.st67{fill:#B88D52;}
	.st68{fill:#8B514D;}
	.st69{fill:#727D6D;}
	.st70{fill:#F6A865;}
	.st71{fill:#F885C1;}
	.st72{fill:#4DC497;}
	.st73{fill:#AAA39B;}
	.st74{fill:#564336;}
	.st75{fill:#006837;}
	.st76{fill:#953D3D;}
	.st77{fill:#BEAF98;}
	.st78{fill:#D06C5D;}
	.st79{fill:#CCCCCC;}
	.st80{fill:#961F21;}
	.st81{fill:#C1934D;}
	.st82{fill:#F7CAC9;}
	.st83{fill:#FF8B85;}
	.st84{fill:#EE5977;}
	.st85{fill:#FDC111;}
	.st86{fill:#53BFD3;}
	.st87{fill:#CCCE01;}
	.st88{fill:#FD8C84;}
	.st89{fill:#92C142;}
	.st90{fill:#FFD066;}
	.st91{fill:#DC042B;}
</style>
<g>
	<g>
		<g>
			<path class="st4" d="M132.2,161.2c-0.3,0-0.7-0.1-1-0.1c-1.9-0.4-3.8-0.9-5.5-1.7c-2.4-1.1-4.6-2.4-6.6-4.1
				c-0.8-0.7-1.6-1.5-2.1-2.5c-0.2-0.4-0.4-0.9-0.6-1.3c-0.5-1.7,0.4-3.2,2.2-3.5c0.9-0.2,1.9-0.1,2.7,0.2c1,0.4,2,0.9,2.9,1.5
				c3.6,2.6,6.7,5.6,9.4,9.1c0,0,0.1,0.1,0.1,0.1c0.3,0.4,0.6,0.9,0.3,1.5c-0.3,0.6-0.8,0.8-1.4,0.8
				C132.5,161.2,132.4,161.2,132.2,161.2C132.2,161.2,132.2,161.2,132.2,161.2z"/>
			<path class="st4" d="M121,167.2c0,0-0.1,0-0.1,0c-4.2-1.4-8.5-2.2-12.9-2.4c-1.1,0-2.2,0-3.3,0.3c-0.9,0.2-1.7,0.6-2.4,1.3
				c-1.3,1.2-1.2,3,0.2,4.1c0.4,0.3,0.8,0.6,1.2,0.8c1,0.5,2,0.8,3.1,0.9c2.6,0.3,5.2,0.2,7.8-0.2c1.9-0.3,3.8-0.9,5.6-1.6
				c0.3-0.1,0.6-0.3,0.9-0.4c0,0,0,0,0,0c0.1-0.1,0.3-0.2,0.4-0.3c0.5-0.4,0.8-0.8,0.7-1.5C122,167.6,121.5,167.4,121,167.2z"/>
			<path class="st4" d="M132.2,176.1c-0.3,0-0.7,0.1-1,0.1c-1.9,0.4-3.8,0.9-5.5,1.7c-2.4,1.1-4.6,2.4-6.6,4.1
				c-0.8,0.7-1.6,1.5-2.1,2.5c-0.2,0.4-0.4,0.9-0.6,1.3c-0.5,1.7,0.4,3.2,2.2,3.5c0.9,0.2,1.9,0.1,2.7-0.2c1-0.4,2-0.9,2.9-1.5
				c3.6-2.6,6.7-5.6,9.4-9.1c0,0,0.1-0.1,0.1-0.1c0.3-0.4,0.6-0.9,0.3-1.5c-0.3-0.6-0.8-0.8-1.4-0.8
				C132.5,176.1,132.4,176.1,132.2,176.1C132.2,176.1,132.2,176.1,132.2,176.1z"/>
		</g>
		<g>
			<path class="st4" d="M299.8,161.2c0.3,0,0.7-0.1,1-0.1c1.9-0.4,3.8-0.9,5.5-1.7c2.4-1.1,4.6-2.4,6.6-4.1c0.8-0.7,1.6-1.5,2.1-2.5
				c0.2-0.4,0.4-0.9,0.6-1.3c0.5-1.7-0.4-3.2-2.2-3.5c-0.9-0.2-1.9-0.1-2.7,0.2c-1,0.4-2,0.9-2.9,1.5c-3.6,2.6-6.7,5.6-9.4,9.1
				c0,0-0.1,0.1-0.1,0.1c-0.3,0.4-0.6,0.9-0.3,1.5c0.3,0.6,0.8,0.8,1.4,0.8C299.5,161.2,299.6,161.2,299.8,161.2
				C299.8,161.2,299.8,161.2,299.8,161.2z"/>
			<path class="st4" d="M311,167.2c0,0,0.1,0,0.1,0c4.2-1.4,8.5-2.2,12.9-2.4c1.1,0,2.2,0,3.3,0.3c0.9,0.2,1.7,0.6,2.4,1.3
				c1.3,1.2,1.2,3-0.2,4.1c-0.4,0.3-0.8,0.6-1.2,0.8c-1,0.5-2,0.8-3.1,0.9c-2.6,0.3-5.2,0.2-7.8-0.2c-1.9-0.3-3.8-0.9-5.6-1.6
				c-0.3-0.1-0.6-0.3-0.9-0.4c0,0,0,0,0,0c-0.1-0.1-0.3-0.2-0.4-0.3c-0.5-0.4-0.8-0.8-0.7-1.5C310,167.6,310.5,167.4,311,167.2z"/>
			<path class="st4" d="M299.8,176.1c0.3,0,0.7,0.1,1,0.1c1.9,0.4,3.8,0.9,5.5,1.7c2.4,1.1,4.6,2.4,6.6,4.1c0.8,0.7,1.6,1.5,2.1,2.5
				c0.2,0.4,0.4,0.9,0.6,1.3c0.5,1.7-0.4,3.2-2.2,3.5c-0.9,0.2-1.9,0.1-2.7-0.2c-1-0.4-2-0.9-2.9-1.5c-3.6-2.6-6.7-5.6-9.4-9.1
				c0,0-0.1-0.1-0.1-0.1c-0.3-0.4-0.6-0.9-0.3-1.5c0.3-0.6,0.8-0.8,1.4-0.8C299.5,176.1,299.6,176.1,299.8,176.1
				C299.8,176.1,299.8,176.1,299.8,176.1z"/>
		</g>
	</g>
	<g>
		<g>
			<path class="st26" d="M284,233.2C284,233.2,284,233.2,284,233.2c-3.2-1.1-6.3-2.4-9.6-3.2c-2.5-0.6-5-0.6-7.4,0.1
				c-0.2,0.1-0.5,0.1-0.7,0.1c-0.5,0-0.8-0.4-0.7-0.9c0.2-0.7,0.7-1.1,1.2-1.5c1.1-0.7,2.3-1.1,3.6-1.3c2.2-0.4,4.5,0,6.6,0.5
				c2,0.5,4,1.2,6,1.8c0.2,0.1,0.5,0.1,0.8,0.2c0.1-0.6,0.1-1.2,0.2-1.8c0.2-2,0.6-4,1.4-5.9c0.2-0.6,0.5-1.1,0.9-1.6
				c1.6-2.2,4.5-2.1,6.1,0.1c0.7,1,1,2.1,1.2,3.3c0.4,2.5,0.4,4.9,0.4,7.4c0,0.3,0,0.6,0,0.9c0.1,0.1,0.2,0.1,0.3,0.1
				c2,0.2,3.9,0.1,5.8-0.4c1.4-0.4,2.7-1.1,3.8-2c0.7-0.5,1.4-1,2.1-1.4c0.2-0.2,0.5-0.3,0.8-0.4c0.4-0.1,0.8,0,1.1,0.3
				c0.2,0.3,0.2,0.7,0,1.1c-0.1,0.2-0.2,0.3-0.4,0.5c-2.8,2.6-5.8,4.7-9.6,5.3c-1.1,0.2-2.3,0.2-3.4,0.3c-0.1,0-0.2,0-0.4,0
				c0,0.3,0,0.5,0,0.7c0.2,5.4,0.3,10.7,0.6,16.1c0.2,3.6,0.5,7.2,0.9,10.8c0.4,3.3,0.8,6.5,1.6,9.7c0.1,0.5,0.3,0.9,0.5,1.3
				c0.3,0.6,0.6,0.7,1.2,0.4c0.4-0.2,0.7-0.5,1-0.8c0.8-0.8,1.5-1.7,2-2.7c2-3.7,3.9-7.5,5.2-11.5c0.3-0.8,0.6-1.6,0.9-2.4
				c0.1-0.3,0.2-0.5,0.4-0.7c0.3-0.4,0.6-0.5,1-0.4c0.4,0.1,0.6,0.4,0.6,0.9c0,0.4-0.1,0.8-0.2,1.2c-0.5,1.6-1,3.1-1.6,4.7
				c-0.7,1.9-1.3,3.9-2,5.8c-0.6,1.8-1.5,3.6-2.4,5.3c-0.9,1.6-2,3-3.3,4.2c-1.3,1.2-2.8,1.8-4.6,1.7c-1.2-0.1-2.3-0.5-3.4-1.2
				c-1.4-0.9-2.4-2.1-3.3-3.5c-1.7-2.6-2.8-5.5-3.6-8.6c-0.4-1.6-0.6-3.2-0.9-4.9c0-0.2-0.1-0.4-0.2-0.7c-0.1,0.3-0.2,0.5-0.3,0.8
				c-1.3,3.3-2.9,6.4-4.8,9.3c-0.6,0.9-1.3,1.8-2,2.7c-0.8,1-1.8,1.8-2.9,2.4c-1.9,1.2-4,1.3-6,0.4c-1.9-0.8-3.3-2.1-4.6-3.6
				c-2.1-2.6-3.5-5.5-4.3-8.8c-0.1-0.4-0.2-0.9-0.4-1.5c-0.1,0.4-0.2,0.6-0.3,0.8c-0.7,1.8-1.4,3.7-2.2,5.5
				c-0.6,1.3-1.4,2.5-2.4,3.6c-1.9,2.1-4.3,2.7-7,2c-2.9-0.7-5.2-2.4-6.9-4.9c-2.1-3.1-3.4-6.6-3.9-10.3c-0.1-0.9-0.2-1.8-0.4-2.8
				c-2.1,3.3-4.5,6.1-8.1,7.7c0,0,0,0.1,0.1,0.1c0.5,0.1,1,0.2,1.4,0.4c4.6,1.4,8,4.3,10.5,8.4c1.7,2.9,2.7,6.1,3.1,9.4
				c0.2,1.5,0.3,3.1,0.3,4.6c0,2.7-0.5,5.4-1.6,7.9c-0.4,0.9-0.9,1.7-1.5,2.4c-1.7,2.1-4.3,2.6-6.7,1.3c-0.9-0.5-1.7-1.1-2.4-1.9
				c-2.7-2.7-4.7-5.9-6.2-9.3c-1.7-4-3.1-8.2-4.2-12.4c-0.4-1.6-0.8-3.3-1.1-4.9c0-0.2-0.1-0.4-0.2-0.8c-0.3,0.9-0.6,1.6-0.8,2.3
				c-0.4,1.2-0.9,2.3-1.7,3.4c-0.3,0.4-0.6,0.8-1,1.2c-1.2,1.2-2.6,1.5-4.1,1c-0.8-0.3-1.6-0.8-2.2-1.3c-1-0.9-1.8-1.9-2.4-3
				c-1.5-2.7-2.4-5.6-2.8-8.7c-0.4-2.6-0.5-5.2-0.4-7.9c0.2-4.3,0.5-8.5,0.6-12.8c0.1-1.8,0-3.7,0-5.6c0-0.4-0.1-0.8-0.1-1.3
				c-0.5-0.2-0.9,0-1.3,0.1c-0.8,0.3-1.6,0.6-2.4,1c-1.3,0.6-2.5,1.3-3.8,2c0,0.5,0.1,1.1,0.1,1.7c0.2,6.4-0.8,12.6-2.8,18.7
				c-1.2,3.8-2.7,7.4-4.9,10.8c-0.7,1.1-1.5,2.1-2.4,3.1c-2.9,3-6.5,3.9-10.5,3c-3.7-0.8-6.4-2.9-8.2-6.2c-1.4-2.5-2.2-5.2-2.5-8.1
				c-0.2-1.7-0.2-3.3-0.1-5c0-0.1,0-0.2,0-0.4c-0.7,0-1.5-0.1-2.2-0.1c-0.7,0-1.4-0.1-2.2-0.2c-0.1,0.2-0.3,0.5-0.4,0.7
				c-1.4,2.9-3.5,5.4-6,7.5c-1.4,1.2-3,2.2-4.8,2.5c-1.7,0.3-3.2,0.2-4.7-0.7c-2.2-1.3-3-3.8-1.8-6.1c0.7-1.3,1.7-2.3,2.9-3.1
				c1.7-1.1,3.7-1.7,5.7-2.1c0.9-0.2,1.8-0.2,2.7-0.4c0.3,0,0.5-0.1,0.8-0.1c0.4-1.1,0.6-2.2,0.7-3.3c0.3-3.1,0.2-6.2-0.4-9.3
				c-0.4-2.2-1.5-3.9-3.3-5.2c-0.9-0.7-1.9-0.8-3-0.5c-1.1,0.3-2,0.9-2.8,1.6c-2,1.7-3.4,3.8-4.3,6.2c-1.4,3.5-2,7.1-1.8,10.9
				c0.2,4.6,0.9,9.1,2,13.6c0.7,2.6,1.2,5.2,1.8,7.7c0.2,1.1,0.3,2.2,0.1,3.4c-0.2,1-0.8,1.8-1.8,2.2c-0.9,0.3-1.7,0.2-2.4-0.3
				c-0.4-0.4-0.8-0.8-1.2-1.2c-0.9-1.2-1.6-2.6-2.1-4c-1.3-3.1-2.1-6.4-2.8-9.6c-1.1-5.2-2.2-10.3-3.2-15.5c-0.6-2.9-0.9-5.9-1-8.9
				c0-0.2,0-0.5-0.1-0.7c0,0,0-0.1-0.1-0.2c-0.1,0.1-0.3,0.1-0.4,0.2c-3.3,2.1-6.1,4.9-8.3,8.2c-0.2,0.3-0.3,0.6-0.6,0.8
				c-0.3,0.2-0.6,0.4-1,0.5c-0.7,0.1-1.3-0.5-1.1-1.2c0.1-0.3,0.2-0.7,0.4-1c2.5-4.3,6-7.7,10.1-10.4c0.1-0.1,0.3-0.2,0.4-0.3
				c0.4-0.2,0.5-0.5,0.5-0.9c0.1-1.9,0.1-3.7,0.3-5.5c0.2-2.5,0.9-4.9,2.1-7.1c0.7-1.2,1.4-2.4,2.6-3.2c1.5-1.1,3.2-1.5,5-1.3
				c2.5,0.4,4.3,2.5,4.4,5c0.1,2.6-0.7,4.9-2.5,6.8c-1.3,1.3-2.7,2.6-4,3.8c-0.3,0.3-0.5,0.6-0.4,1c0.5,3.6,0.9,7.1,1.4,10.7
				c0,0.1,0,0.2,0.1,0.5c0.1-0.3,0.2-0.4,0.2-0.6c1.2-4.1,3.1-7.9,6-11.1c0.8-0.9,1.6-1.7,2.5-2.4c3.8-2.9,8.8-2.6,12.2,0.8
				c2.1,2,3.3,4.5,3.8,7.4c0.7,3.9,0.2,7.8-1.1,11.5c-0.1,0.3-0.2,0.6-0.3,0.9c0,0,0,0,0,0.1c0.6,0.2,2.9,0.4,3.8,0.3
				c0.2-1,0.4-2.1,0.7-3.1c0.5-2.2,1.2-4.4,2.3-6.5c1.1-2.1,2.6-3.8,4.6-5c2.3-1.4,4.7-1.4,7-0.1c1.6,0.9,2.5,2.4,2.6,4.2
				c0.1,1.5-0.1,2.9-0.8,4.2c-1.5,2.9-3.7,4.9-6.6,6.3c-0.2,0.1-0.4,0.2-0.6,0.3c0,0-0.1,0.1-0.1,0.1c-0.1,1.5,0,3,0.3,4.5
				c0.3,1.6,0.7,3.2,1.3,4.7c0.7,1.7,1.8,3.2,3.3,4.3c0.1,0.1,0.3,0.2,0.4,0.3c2.1,1.5,3.9,1.4,5.8-0.4c0.6-0.5,1.1-1.2,1.6-1.8
				c1.5-2.1,2.4-4.4,3.2-6.8c1.3-3.6,2.3-7.3,3-11.1c0.6-2.8,0.8-5.7,0.7-8.6c0-0.1,0-0.2,0-0.4c-0.4,0.1-0.8,0.2-1.2,0.3
				c-1.6,0.5-3.2,0.7-4.9,0.2c-1.7-0.4-3.2-1.3-4.1-2.8c-1.4-2.2-2.1-4.5-1.6-7.1c0.3-1.6,1.1-3,2.5-4c1.9-1.4,4.3-1.4,6.2,0
				c0.9,0.6,1.5,1.4,2.1,2.3c1.3,2,2.3,4.1,2.8,6.4c0.1,0.2,0.1,0.4,0.2,0.7c0.5-0.3,1-0.5,1.4-0.7c1.4-0.7,2.7-1.5,4.1-2.2
				c1.4-0.7,2.9-1.4,4.6-1.7c3.3-0.6,5.8,1.1,7,4.2c0.4,1.2,0.5,2.4,0.6,3.6c0,3.1-0.2,6.2-0.5,9.3c-0.3,2.7-0.6,5.4-0.8,8.1
				c-0.2,2.4-0.4,4.9-0.5,7.3c-0.1,2.5-0.1,4.9,0.5,7.3c0.1,0.5,0.3,0.9,0.5,1.3c0.2,0.3,0.4,0.6,0.7,0.9c0.6-0.3,1.1-0.7,1.4-1.1
				c0.6-0.9,1.2-1.8,1.6-2.8c0.8-1.6,1.2-3.3,1.6-5.1c0.1-0.2,0-0.5,0-0.7c-0.6-4.2-1.1-8.3-1.4-12.5c-0.3-5-0.3-10,0.3-14.9
				c0.5-4.5,1.4-9,3-13.2c0.7-1.9,1.6-3.8,2.9-5.4c0.9-1.1,1.9-2.1,3.2-2.7c2.2-1.1,4.2-0.8,6,0.8c1.8,1.7,2.8,3.8,3.1,6.2
				c0.4,3,0,6-0.7,8.9c-1.6,6.5-4.6,12.4-8.6,17.7c-0.3,0.4-0.5,0.8-0.4,1.3c0.2,3.7,0.6,7.3,1.2,11c0,0.1,0.1,0.2,0.1,0.3
				c0.3-0.1,0.5-0.2,0.8-0.3c2.5-1.2,4.4-3.1,5.9-5.4c0.7-1.1,1.3-2.2,2-3.3c0.2-0.3,0.2-0.8,0.3-1.2c0.2-3.1,0.9-6.1,2.1-9
				c0.7-1.6,1.6-3.2,2.7-4.6c1.6-1.9,3.6-3,6.1-3.2c3.9-0.4,8.4,3.4,7.1,8.4c-0.5,2-1.6,3.6-3.3,4.8c-1.4,1-2.9,1.7-4.5,2.1
				c-0.3,0.1-0.6,0.1-0.9,0.2c0,0.1-0.1,0.2-0.1,0.4c-0.3,5,0.3,9.9,2.1,14.6c0.6,1.7,1.5,3.1,3.1,4.1c0.2,0.1,0.4,0.2,0.6,0.3
				c0.7,0.3,1.5,0.2,2-0.4c0.6-0.8,1.3-1.5,1.7-2.3c1.3-2.3,2.3-4.7,3.3-7.2c0.5-1.1,0.6-2.2,0.6-3.4c-0.1-3.7,0.4-7.3,1.7-10.8
				c0.9-2.4,2.2-4.5,4.3-6c1.4-1.1,3.1-1.8,4.9-2c2.5-0.3,5.6,1.3,6.8,3.6c0.3,0.6,0.5,1.2,0.5,1.9c0,0.4-0.1,0.8-0.5,1
				c-0.4,0.2-0.8,0.1-1.1-0.2c-0.6-0.5-1.3-0.6-2.1-0.8c-0.5-0.1-1,0.1-1.3,0.5c-0.3,0.5-0.7,1.1-0.9,1.7c-0.6,1.6-1,3.2-1.2,4.9
				c-0.3,3-0.5,5.9-0.4,8.9c0,3.6,0.5,7.2,1.5,10.7c0.2,0.8,0.5,1.6,1,2.3c0.8,1.2,1.7,1.4,2.9,0.6c1.1-0.8,2.1-1.7,3-2.8
				c1.5-1.9,2.7-4,3.7-6.2c0.9-1.9,1.8-3.9,2.7-5.9c0.2-0.4,0.3-0.8,0.2-1.2c-0.4-6.9-0.3-13.8,0-20.7C284,234.7,284,234,284,233.2z
				 M227.9,266.1c0,0.1-0.1,0.2-0.1,0.2c0.1,0.7,0.2,1.4,0.3,2.1c0.7,4.8,1.7,9.4,3.2,14c1,3.2,2.1,6.4,3.6,9.5
				c0.4,0.8,0.9,1.7,1.5,2.4c0.4,0.6,0.9,1,1.6,1.4c0.4-0.5,0.9-0.9,1.1-1.5c0.5-0.9,0.9-1.9,1.2-2.9c0.7-2.5,0.9-5.1,0.7-7.7
				c-0.3-3.2-1.1-6.2-2.6-9c-2.1-4-5.4-6.9-9.7-8.3C228.4,266.2,228.1,266.1,227.9,266.1z M225.8,245.8c0.2-0.3,0.4-0.5,0.5-0.7
				c0.6-1.1,1.3-2.2,1.8-3.3c2.1-4.1,3.7-8.3,4.5-12.8c0.3-1.8,0.5-3.6,0.2-5.5c-0.1-1.2-0.4-2.3-1-3.3c-0.2-0.3-0.3-0.5-0.5-0.7
				c-0.3-0.4-0.6-0.4-0.8,0c-0.2,0.3-0.5,0.7-0.6,1c-0.5,1.2-1,2.5-1.3,3.7c-0.8,2.8-1.3,5.7-1.7,8.5c-0.7,4.1-1,8.2-1,12.4
				C225.7,245.4,225.7,245.5,225.8,245.8z M155,256.9c-0.2,0-0.4,0-0.5,0c-1.7,0.2-3.3,0.6-4.9,1.2c-1,0.4-1.8,0.9-2.6,1.6
				c-0.6,0.5-1,1.1-1.3,1.8c-0.5,1.4,0.2,2.5,1.6,2.8c0.3,0.1,0.6,0.1,1,0c0.9-0.1,1.8-0.6,2.5-1.2c1.4-1.2,2.6-2.5,3.3-4.2
				C154.4,258.3,154.7,257.6,155,256.9z M194,237.4c-0.2-0.8-0.3-1.6-0.5-2.3c-0.5-1.8-1.4-3.2-2.7-4.5c-0.3-0.3-0.7-0.6-1.1-0.8
				c-0.5-0.3-0.9-0.2-1.2,0.3c-0.3,0.4-0.6,0.9-0.7,1.3c-0.7,3,1,5.9,4.6,6.3C192.9,237.7,193.4,237.6,194,237.4z M174.8,253.9
				c0.2,0,0.3,0,0.3,0c2.5-1.3,4.3-3.1,5.3-5.7c0.2-0.6,0.3-1.3,0.3-2c0-0.6-0.3-1-0.7-1.4c-0.6-0.6-1.3-0.6-1.9,0
				c-0.4,0.4-0.8,0.9-1,1.4c-0.9,1.6-1.5,3.3-1.8,5.1C175.1,252.1,174.9,253,174.8,253.9z M245.6,248.1c1.8-0.4,3.3-1.1,4.5-2.3
				c0.9-0.9,1.3-2.1,1.4-3.4c0-0.7-0.1-1.3-0.5-1.9c-0.6-0.9-1.2-1-2-0.4c-0.6,0.5-1.1,1.1-1.5,1.7c-0.9,1.5-1.4,3.2-1.7,4.9
				C245.6,247.1,245.6,247.5,245.6,248.1z M137,233.3c0.1,0,0.1,0,0.2,0.1c1.1-0.8,2.1-1.5,3-2.5c0.8-0.9,1.3-2,1.6-3.2
				c0.2-0.7,0.1-1.4-0.3-2c-0.4-0.7-1.1-0.9-1.8-0.6c-0.3,0.1-0.6,0.4-0.7,0.6c-0.3,0.4-0.6,0.9-0.8,1.4c-0.6,1.3-0.8,2.7-1,4.1
				C137.1,231.9,137.1,232.6,137,233.3z"/>
			<path class="st26" d="M214,98.5c-0.2,0.4-0.3,0.6-0.4,0.8c-1,2.1-1.9,4.1-2.9,6.2c-1,1.9-2.2,3.6-3.7,5.1c-1,1-2.2,1.8-3.5,2.4
				c-1.6,0.7-3.3,0.7-4.9,0c-3.3-1.5-5.7-3.9-7.1-7.3c-0.1-0.3-0.3-0.6-0.4-1.1c-0.1,0.3-0.2,0.5-0.3,0.7c-0.6,1.8-1.2,3.7-1.9,5.5
				c-0.5,1.4-1.2,2.8-2.1,4c-0.5,0.8-1.1,1.4-1.9,2c-1.2,0.8-2.5,1-3.8,0.3c-0.6-0.3-1.2-0.7-1.7-1.1c-1.7-1.4-3-3.2-3.9-5.2
				c-1.4-3-2.2-6.1-2.6-9.4c-0.4-3-0.5-6-0.5-9.1c0-0.3,0-0.6,0-1.1c-2.5,1.6-4.8,3-7.2,4.6c0.3,1,0.5,1.9,0.8,2.8
				c0.8,2.3,1,4.7,0.6,7.1c-0.4,2.2-1.1,4.3-2.1,6.3c-1.4,2.8-3.4,5-6.2,6.5c-0.8,0.4-1.5,0.9-2.3,1.3c-1.9,1-3.9,1.1-6,0.4
				c-1.4-0.5-2.8-1.1-4-2c-1.9-1.6-3.1-3.6-2.9-6.2c0.1-1.6,0.8-3,1.6-4.3c1.9-2.9,4.5-5.1,7.3-7c1.9-1.2,3.7-2.4,5.6-3.7
				c0.2-0.1,0.4-0.3,0.7-0.5c-0.9-1.4-1.8-2.6-3-3.7c-1.6-1.6-3.3-3.1-4.9-4.7c-1.4-1.4-2.8-2.8-4.2-4.3c-1.2-1.3-2.3-2.8-3.1-4.4
				c-1.2-2.3-1.6-4.8-0.9-7.4c0.2-0.8,0.6-1.6,1-2.4c1.4-2.3,3.3-3.3,6.4-2.8c2.1,0.3,3.9,1.4,5.4,2.9c1.5,1.5,2.6,3.3,3.1,5.4
				c0,0.2,0.1,0.3,0.1,0.5c0.1,0.5-0.1,0.9-0.5,1.2c-0.4,0.3-0.9,0.3-1.4,0.1c-0.6-0.3-1-0.7-1.3-1.2c-0.4-0.7-0.8-1.5-1.3-2.2
				c-0.5-0.8-1.1-1.7-1.7-2.4c-0.5-0.7-1.2-1.1-2-1.5c-1.2-0.4-2.4,0-2.9,1.2c-0.4,1-0.5,2,0,3c0.8,1.4,1.7,2.8,2.9,3.9
				c3.6,3.3,6.9,6.9,10.2,10.6c1.2,1.4,2.4,2.8,3.3,4.4c0.1,0.1,0.1,0.2,0.2,0.3c0.2-0.2,0.5-0.3,0.7-0.5c2-1.2,3.9-2.5,5.9-3.7
				c0.4-0.2,1-0.3,1.2-0.7c0.2-0.3,0-0.9,0-1.4c-0.1-2.2-0.1-4.4-0.2-6.6c0-0.1,0-0.2,0-0.4c-1.2-0.4-2.5-0.5-3.8-0.5
				c-1.4,0-2.8,0.1-4.1,0.2c-0.3,0-0.7,0-1,0c-0.6-0.1-0.8-0.6-0.5-1.1c0.3-0.5,0.8-0.9,1.4-1.1c1-0.5,2.2-0.8,3.3-0.9
				c1.1-0.1,2.3-0.1,3.4-0.1c0.4,0,0.8,0.1,1.2,0.1c0-0.3,0-0.6,0-0.9c0.1-2.1,0-4.2,0.4-6.3c0.2-1.2,0.7-2.3,1.6-3.3
				c1.4-1.5,3.5-1.6,5-0.1c0.7,0.7,1.1,1.5,1.4,2.4c0.6,1.7,0.9,3.4,1.1,5.2c0.1,1.4,0.2,2.8,0.4,4.2c0,0.3,0.1,0.5,0.1,0.8
				c1.5,0.3,3,0.4,4.5,0.2c1.1-0.2,2.2-0.4,3.3-0.6c0.3-0.1,0.6-0.1,0.8-0.2c0.5-0.1,1,0.2,1.2,0.7c0.2,0.5,0.1,1-0.4,1.3
				c-0.6,0.4-1.2,0.7-1.9,1c-2.1,0.8-4.2,1.1-6.4,1.1c-0.3,0-0.6,0-0.9,0c0,0.6,0,1.2,0,1.7c0.1,2.3,0.2,4.7,0.3,7
				c0.1,4.7,0.3,9.4,0.9,14.1c0.2,2,0.5,4,0.8,6c0.1,0.6,0.3,1.2,0.5,1.7c0.2,0.6,0.5,0.6,1,0.2c0.3-0.2,0.5-0.5,0.7-0.7
				c0.5-0.8,1-1.6,1.4-2.5c1-2.5,1.9-5,2.8-7.5c0.1-0.2,0.1-0.6,0-0.8c-0.6-3.5-0.7-7,0.1-10.4c0.4-1.9,1.2-3.7,2.2-5.3
				c3.1-4.7,9-6.7,14.1-4.7c2,0.8,3.6,2,4.7,3.8c0.4,0.7,0.7,1.4,0.8,2.2c0,0.4,0,0.7-0.4,0.9c-0.3,0.2-0.6,0-0.9-0.1
				c-0.7-0.5-1.4-1-2-1.5c-0.9-0.6-1.8-1.1-2.9-1.3c-1.7-0.3-3.1,0.4-3.9,1.9c-0.8,1.4-1.1,3-1.4,4.6c-0.6,4-0.5,8,0.4,12
				c0.3,1.2,0.8,2.4,1.3,3.5c0.2,0.5,0.6,0.9,1,1.3c0.6,0.5,1.1,0.6,1.7,0c0.7-0.6,1.5-1.3,2-2c0.8-1.2,1.6-2.4,2.3-3.6
				c1.4-2.7,2.5-5.5,3.4-8.3c0.5-1.7,0.7-3.5,1-5.3c0.3-1.6,0.4-3.3,0.6-5c0.1-0.7,0.4-1.5,0.6-2.2c0.3-0.8,0.8-1.5,1.5-2
				c1.1-0.8,2.4-0.7,3.3,0.4c0.4,0.5,0.8,1.1,0.9,1.7c0.3,1.2,0.6,2.3,0.7,3.5c0.2,3.1,0.2,6.2,0.4,9.2c0.1,2.6,0.1,5.2,0.6,7.7
				c0.4,2,1,3.9,1.9,5.7c0.4,0.8,0.9,1.5,1.6,2.1c0.8,0.7,1.4,0.7,2.2,0c0.8-0.8,1.5-1.7,2-2.7c1.4-2.6,2.4-5.3,3-8.2
				c0.8-3.5,1.4-7,1.7-10.5c0.1-1.8,0-3.6,0-5.4c0-0.1,0-0.3-0.1-0.4c-0.4,0.1-0.7,0.1-1.1,0.2c-1.7,0.3-3.4,0.4-5.1,0
				c-4.1-1-6.6-4.8-5.9-9c0.3-1.7,0.9-3.3,2.2-4.6c1.8-2,4.3-2.3,6.6-0.9c1,0.6,1.8,1.5,2.6,2.4c1.7,2.2,2.7,4.7,3.2,7.4
				c0.1,0.4,0.2,0.8,0.3,1.3c0.3-0.1,0.6-0.2,0.8-0.3c2.7-1.1,5.3-2.1,8-3.2c1.4-0.6,2.9-1,4.5-1.2c2-0.2,3.6,0.5,4.7,2.2
				c0.7,1,1,2.2,1.2,3.4c0.2,1.5,0.2,3,0.1,4.5c-0.2,2.7-0.4,5.4-0.6,8c-0.2,3.5-0.5,7-0.1,10.5c0.3,2.7,0.7,5.3,1.9,7.7
				c0.2,0.4,0.4,0.9,0.7,1.3c0.4,0.6,1,0.8,1.6,0.5c0.6-0.3,1.2-0.7,1.7-1.2c0.7-0.7,1.3-1.5,1.9-2.3c1.2-1.7,2.1-3.6,3-5.5
				c0.7-1.5,1.4-3,2-4.5c0.1-0.3,0.2-0.7,0.2-1c-0.1-4.1,0-8.3,0.2-12.4c0.1-1.5,0.2-3,0.2-4.5c0-0.2,0-0.4,0-0.6
				c-0.7-0.2-1.4-0.4-2.1-0.5c-2.5-0.6-4.9-0.8-7.5-0.8c-0.3,0-0.6,0-0.9-0.1c-0.4-0.1-0.8-0.3-0.9-0.8c-0.1-0.5,0.2-0.8,0.6-1
				c0.9-0.5,2-0.8,3-1c2.2-0.3,4.3-0.2,6.5,0.2c0.3,0,0.5,0.1,0.8,0.1c0,0,0.1,0,0.2-0.1c0-0.2,0-0.5,0-0.7
				c-0.1-2.1-0.1-4.3,0.4-6.4c0.2-0.8,0.5-1.5,1-2.2c2-2.5,4.8-1.3,5.8,0.4c0.6,1,0.9,2.1,1.2,3.2c0.4,2,0.6,4,0.7,6
				c0,0.6,0.1,1.3,0.1,2c0.8,0.1,1.5,0.1,2.3,0c1.1-0.2,2.1-0.5,3.1-1.1c0.7-0.4,1.4-0.7,2.1-1c0.6-0.2,1-0.1,1.3,0.3
				c0.3,0.4,0.3,0.9,0,1.4c-0.2,0.3-0.4,0.5-0.7,0.7c-2,1.6-4.3,2.4-6.8,2.7c-0.4,0-0.8,0.1-1.2,0.1c0,0.2,0,0.4,0,0.6
				c0.1,4.3,0.1,8.7,0.2,13c0.1,3.4,0.5,6.7,1.2,10c0.3,1.3,0.9,2.5,1.8,3.6c0.7,0.9,1.4,1,2.3,0.2c1-0.9,1.8-2,2.7-3.1
				c1.4-1.7,2.2-3.8,3.2-5.7c0.9-1.7,1.7-3.5,2.6-5.2c0.1-0.3,0.3-0.6,0.5-0.8c0.2-0.3,0.6-0.4,0.9-0.2c0.4,0.2,0.6,0.5,0.5,0.9
				c0,0.3-0.1,0.5-0.2,0.8c-1.8,4.2-3.5,8.4-5.8,12.4c-0.9,1.6-1.9,3.1-3,4.6c-0.5,0.7-1.1,1.3-1.8,1.8c-2.4,1.8-5.2,2-7.8,0.4
				c-1.5-0.9-2.6-2.2-3.5-3.6c-1.2-1.9-1.9-3.9-2.3-6c-0.2-0.9-0.4-1.9-0.6-3c-0.2,0.3-0.3,0.5-0.4,0.7c-0.9,2-1.8,4.1-2.8,6.1
				c-0.8,1.6-1.8,3.1-2.8,4.6c-0.2,0.4-0.5,0.8-0.9,1.1c-1.7,1.9-3.7,2.5-6.1,1.8c-1.7-0.5-3.1-1.4-4.2-2.8c-1.5-1.8-2.4-4-3.1-6.3
				c-0.7-2.6-1.2-5.2-1.2-7.9c-0.1-4.1-0.2-8.3-0.3-12.5c0-1.8,0.1-3.6,0.1-5.3c0-0.7-0.1-1.5-0.2-2.2c-0.2-1-0.7-1.4-1.7-1.3
				c-0.9,0.1-1.7,0.2-2.5,0.5c-1.8,0.6-3.6,1.3-5.4,2c-0.1,0-0.1,0.1-0.2,0.2c0,0.5,0.1,1.1,0.1,1.6c0.4,5.9-0.4,11.6-1.8,17.3
				c-0.7,2.8-1.6,5.5-2.8,8.1c-0.5,1.1-1.1,2.2-1.8,3.2c-0.4,0.6-1,1.2-1.6,1.8c-1.8,1.7-4,2-6.2,1.1c-2.1-0.9-3.8-2.4-5.2-4.2
				c-1.6-2.1-2.6-4.4-3.2-6.9c-0.4-1.4-0.6-2.9-0.8-4.4C214.2,99.3,214.1,99,214,98.5z M159.8,99.5c-0.2,0.1-0.3,0.1-0.3,0.2
				c-2.4,1.7-4.8,3.3-7.2,5c-1.8,1.3-3.4,2.8-4.7,4.7c-0.4,0.5-0.7,1-0.9,1.6c-0.4,1.1-0.4,2.1,0.3,3.2c1.9,2.7,5.8,3.8,8.9,2.3
				c2.5-1.2,4-3.1,4.9-5.7C161.9,107,161.2,103.3,159.8,99.5z M234.3,79.7c-0.3-2.1-0.9-4-1.9-5.7c-0.3-0.6-0.7-1.1-1.2-1.6
				c-0.8-0.8-1.2-0.7-2,0.2c-0.1,0.1-0.1,0.2-0.2,0.3c-1.5,3.1,0.5,6.8,4.2,6.9C233.6,79.8,233.9,79.8,234.3,79.7z"/>
		</g>
		<g>
			<path class="st4" d="M128.7,350.2c0.3,0.9,0.6,1.7,1.3,2.4c0.8,0.8,1.6,1.5,2.9,1.6c0.7,0.1,1.4,0.2,2.2,0.2
				c0.8,0.1,1.4-0.2,2-0.6c0.7-0.4,1.4-0.8,2.1-1c2-0.7,4,0.1,5.2,1.9c1,1.5,1.5,3.3,1.8,5.2c0.1,0.5,0.2,1,0.3,1.4
				c0.2,2.7-1.3,4.2-3.3,4.8c-1.1,0.3-2.2,0.3-3.3,0.5c-3.4,0.5-6.8,0.4-10.2-0.3c-1.3-0.3-2.5-0.7-3.7-1.2
				c-1.9-0.9-3.3-2.1-4.4-3.9c-2-3.5-3.5-7.1-4.1-11.2c-0.3-1.4-0.6-2.7-0.6-4.1c-0.1-2.6-0.2-5.4,0-8.1c0.3-5.4,1.3-10.5,3.2-15.6
				c1.5-4.2,3.7-7.9,6.5-11.3c3-3.5,6.7-5.2,11.1-5.3c0.4-0.1,0.8,0,1.2,0c3.2,0.5,4.9,2.1,5.4,5.4c0.3,2.3,0,4.5-1.1,6.5
				c-0.9,1.7-2.5,2.2-4.2,2c-0.7,0-1.3-0.2-1.9-0.3c-2.1-0.5-3.8,0.3-5.2,1.8c-0.9,1-1.7,2.1-2.2,3.5c-0.5,1.6-1,3.2-1.5,4.8
				c-0.9,3.4-1,6.9-0.9,11.8C127.4,343.2,127.5,346.8,128.7,350.2z"/>
			<path class="st4" d="M182,353.7c-0.8,3.5-2.4,6.6-4.7,9.4c-0.3,0.5-0.8,0.9-1.2,1.4c-2.5,2.5-5.6,3.2-9.1,2.4
				c-5.4-1.4-9.3-4.5-11.7-9.6c-1.8-3.6-2.8-7.4-3.4-11.4c-0.6-4.2-0.8-8.6-0.4-12.9c0.2-2.6,0.3-5.4,0.7-8.1
				c0.5-4.2,1.8-8.2,4-11.9c1.3-2.1,2.9-4,5-5.4c2.7-1.9,5.7-2.2,8.9-1.1c2.5,0.8,4.5,2.4,6.1,4.4c2,2.5,3.2,5.3,4.2,8.2
				c1.1,3.5,1.7,7.1,2.1,10.7c0.4,3.2,0.6,6.5,0.9,9.9C183.5,344.4,183.1,349.1,182,353.7z M172.4,325.9c-0.3-2-0.8-4-1.9-5.9
				c-0.4-0.9-1.1-1.9-2-2.5c-1-0.6-1.6-0.6-2.4,0.3c-0.7,0.8-1.1,1.7-1.5,2.6c-0.7,1.7-1,3.5-1.2,5.4c-0.5,5-0.8,10.1-0.3,15.2
				c0.3,3,0.8,6,1.9,8.9c0.4,1.1,1.1,2.3,1.7,3.3c0.3,0.5,0.8,0.9,1.3,1.1c0.8,0.5,1,0.3,1.4-0.4c1-1.5,1.7-3.3,2.2-5.1
				c1.2-4.3,1.4-8.8,1.5-12.9C173.2,332.4,173,329.1,172.4,325.9z"/>
			<path class="st4" d="M200.8,319.6c-0.3,3.2-0.6,6.5-0.8,9.7c-0.2,4.2-0.2,8.6-0.3,12.8c0,0.3,0,0.7,0,1c0,0.7,0.3,1,0.9,1.1
				c0.6,0.1,1.2,0,1.7-0.1c1-0.3,2-0.8,3.1-1.2c2.5-0.8,3.7-0.2,4.4,2.3c0.7,2.1,0.6,4.3,0.1,6.5c-0.2,0.5-0.4,0.9-0.7,1.4
				c-0.3,0.7-0.9,1.1-1.7,1.1c-0.6,0.1-1.3,0.1-1.8,0c-1.4-0.2-2.7-0.3-4-0.5c-0.3,0-0.7,0-1,0.1c-0.6,0.1-1,0.6-0.9,1.4
				c0.2,1.6,0.3,3.1,0.5,4.8c0.1,1.3,0.4,2.5,0.4,3.7c0.1,1.6-0.9,2.8-2.4,3c-2.3,0.3-4.7,0.4-7,0.2c-2.5-0.3-3.3-2.1-3.2-4.1
				c0.1-1.4,0.3-2.7,0.4-4.1c0.6-5.4,1.2-10.8,1.6-16.2c0.8-8.2,1.1-16.5,0.9-24.7c-0.1-2.4-0.3-4.8-0.3-7.1
				c-0.1-0.6-0.3-1.2-0.3-1.9c-0.1-0.4-0.2-0.9-0.2-1.4c0.1-0.9,0.7-1.5,1.5-1.7c1.2-0.3,2.4-0.2,3.5,0.1c3.1,0.6,6.2,1,9.3,1
				c1.6,0,3.2-0.3,4.8-0.4c1-0.1,2-0.3,3-0.3c1.9-0.1,3.1,0.8,3.7,2.7c0.6,2.3,0.4,4.7-0.3,7c-0.4,1.5-1.6,2.2-3.1,2.2
				c-1,0-2-0.2-3-0.4c-1.2-0.3-2.4-0.8-3.6-1.2c-1.7-0.5-2.8-0.7-4.5-0.4C201.3,317.3,201,318.5,200.8,319.6z"/>
			<path class="st4" d="M233.8,319.6c-0.3,3.2-0.6,6.5-0.8,9.7c-0.2,4.2-0.2,8.6-0.3,12.8c0,0.3,0,0.7,0,1c0,0.7,0.3,1,0.9,1.1
				c0.6,0.1,1.2,0,1.7-0.1c1-0.3,2-0.8,3.1-1.2c2.5-0.8,3.7-0.2,4.4,2.3c0.7,2.1,0.6,4.3,0.1,6.5c-0.2,0.5-0.4,0.9-0.7,1.4
				c-0.3,0.7-0.9,1.1-1.7,1.1c-0.6,0.1-1.3,0.1-1.8,0c-1.4-0.2-2.7-0.3-4-0.5c-0.3,0-0.7,0-1,0.1c-0.6,0.1-1,0.6-0.9,1.4
				c0.2,1.6,0.3,3.1,0.5,4.8c0.1,1.3,0.4,2.5,0.4,3.7c0.1,1.6-0.9,2.8-2.4,3c-2.3,0.3-4.7,0.4-7,0.2c-2.5-0.3-3.3-2.1-3.2-4.1
				c0.1-1.4,0.3-2.7,0.4-4.1c0.6-5.4,1.2-10.8,1.6-16.2c0.8-8.2,1.1-16.5,0.9-24.7c-0.1-2.4-0.3-4.8-0.3-7.1
				c-0.1-0.6-0.3-1.2-0.3-1.9c-0.1-0.4-0.2-0.9-0.2-1.4c0.1-0.9,0.7-1.5,1.5-1.7c1.2-0.3,2.4-0.2,3.5,0.1c3.1,0.6,6.2,1,9.3,1
				c1.6,0,3.2-0.3,4.8-0.4c1-0.1,2-0.3,3-0.3c1.9-0.1,3.1,0.8,3.7,2.7c0.6,2.3,0.4,4.7-0.3,7c-0.4,1.5-1.6,2.2-3.1,2.2
				c-1,0-2-0.2-3-0.4c-1.2-0.3-2.4-0.8-3.6-1.2c-1.7-0.5-2.8-0.7-4.5-0.4C234.3,317.3,233.9,318.5,233.8,319.6z"/>
			<path class="st4" d="M266.2,339.2c0.1,1.1,0.3,2.1,1.1,3c0.5,0.6,1.1,0.9,1.9,0.8c0.9-0.2,1.6-0.3,2.5-0.5c0.5-0.2,1-0.3,1.5-0.5
				c1.9-0.4,3.5,0.3,4,2.2c0.8,2.5,0.8,5.1-0.1,7.6c-0.5,1.4-1.8,1.9-3.1,1.9c-1.2,0.1-2.4-0.2-3.5-0.3c-0.6-0.1-1.1-0.2-1.6-0.3
				c-1.3-0.1-2.2,0.7-2.4,1.9c-0.3,1.4,0.3,2.3,1.6,2.6c1.3,0.3,2.5,0.2,3.7-0.2c1.2-0.3,2.3-0.7,3.4-1c0.4-0.1,0.9-0.3,1.4-0.3
				c1.4-0.2,2.5,0.3,3.1,1.5c1.2,2,0.8,5.9-0.9,7.6c-1.3,1.3-2.9,1.8-4.7,1.7c-1.9-0.1-3.7-0.3-5.6-0.5c-2.3-0.3-4.6-0.2-6.9,0.1
				c-0.8,0.1-1.5,0.2-2.3,0.2c-0.9,0.1-1.9-0.2-2.7-0.6c-1.5-0.8-2.6-2-2.6-3.7c0-2,0.1-4,0.3-6c0.8-6.9,1.4-13.8,1.3-20.7
				c-0.1-3.8-0.1-7.7-0.1-11.6c0-3.1-0.4-6.2-0.8-9.3c-0.2-1.5-0.3-3.1-0.2-4.6c0.2-2.4,1.4-3.8,3.7-4.2s4.6-0.3,6.9,0.2
				c3.9,0.6,7.8,0.8,11.7,0.8c1.7,0,2.4,0.6,2.5,2.2c0.1,1.1,0.1,2.3-0.2,3.5c-0.4,2.3-2,3.6-4.3,3.7c-1.1,0-2.3-0.2-3.5-0.3
				c-0.8-0.1-1.8-0.3-2.7-0.3c-1.4,0-2,0.5-2.2,1.9c-0.3,1.3-0.4,2.7-0.4,4.1c-0.1,2.8-0.1,8.6-0.2,8.6
				C266,333.1,266.1,336.2,266.2,339.2z"/>
			<path class="st4" d="M297.3,339.2c0.1,1.1,0.3,2.1,1.1,3c0.5,0.6,1.1,0.9,1.9,0.8c0.9-0.2,1.6-0.3,2.5-0.5c0.5-0.2,1-0.3,1.5-0.5
				c1.9-0.4,3.5,0.3,4,2.2c0.8,2.5,0.8,5.1-0.1,7.6c-0.5,1.4-1.8,1.9-3.1,1.9c-1.2,0.1-2.4-0.2-3.5-0.3c-0.6-0.1-1.1-0.2-1.6-0.3
				c-1.3-0.1-2.2,0.7-2.4,1.9c-0.3,1.4,0.3,2.3,1.6,2.6c1.3,0.3,2.5,0.2,3.7-0.2c1.2-0.3,2.3-0.7,3.4-1c0.4-0.1,0.9-0.3,1.4-0.3
				c1.4-0.2,2.5,0.3,3.1,1.5c1.2,2,0.8,5.9-0.9,7.6c-1.3,1.3-2.9,1.8-4.7,1.7c-1.9-0.1-3.7-0.3-5.6-0.5c-2.3-0.3-4.6-0.2-6.9,0.1
				c-0.8,0.1-1.5,0.2-2.3,0.2c-0.9,0.1-1.9-0.2-2.7-0.6c-1.5-0.8-2.6-2-2.6-3.7c0-2,0.1-4,0.3-6c0.8-6.9,1.4-13.8,1.3-20.7
				c-0.1-3.8-0.1-7.7-0.1-11.6c0-3.1-0.4-6.2-0.8-9.3c-0.2-1.5-0.3-3.1-0.2-4.6c0.2-2.4,1.4-3.8,3.7-4.2s4.6-0.3,6.9,0.2
				c3.9,0.6,7.8,0.8,11.7,0.8c1.7,0,2.4,0.6,2.5,2.2c0.1,1.1,0.1,2.3-0.2,3.5c-0.4,2.3-2,3.6-4.3,3.7c-1.1,0-2.3-0.2-3.5-0.3
				c-0.8-0.1-1.8-0.3-2.7-0.3c-1.4,0-2,0.5-2.2,1.9c-0.3,1.3-0.4,2.7-0.4,4.1c-0.1,2.8-0.1,8.6-0.2,8.6
				C297,333.1,297.2,336.2,297.3,339.2z"/>
		</g>
		<g>
			<g>
				<g>
					<path class="st20" d="M163.4,195.9l-1.1,5.9l-5.1-0.1c-0.4-2.3-0.8-4.7-1.2-7.1c-0.5-2.4-1-4.7-1.6-7c-0.6-2.3-1.3-4.5-2-6.7
						c-0.7-2.2-1.6-4.2-2.5-6.1l5.4,0c0.5,3.1,0.9,5.8,1.4,8.1c0.5,2.3,0.9,4.3,1.4,5.9c0.4,1.6,0.8,2.9,1.1,3.9
						c0.3,1,0.6,1.7,0.8,2.1c0.3-0.7,0.6-1.4,0.9-2.1c0.3-0.7,0.6-1.4,0.8-2.1c0.3-0.7,0.5-1.4,0.8-2.2c0.3-0.8,0.6-1.6,0.9-2.4
						c0.3,0.9,0.6,1.7,0.9,2.4c0.3,0.8,0.6,1.5,0.8,2.2c0.3,0.7,0.6,1.4,0.9,2.1c0.3,0.7,0.6,1.4,0.9,2.1c0.2-0.4,0.4-1,0.7-2
						c0.3-0.9,0.7-2.2,1.1-3.8c0.4-1.6,0.9-3.6,1.4-5.9c0.5-2.3,1-5.1,1.5-8.3l5.3,0c-1.7,3.5-3,6.9-4,10.1
						c-0.9,3.2-1.7,6.1-2.2,8.6c-0.6,2.9-1,5.7-1.2,8.3l-5.1,0.1L163.4,195.9z"/>
					<path class="st20" d="M184.9,174.7c-0.6,4.3-1,8.8-1,13.3c0,4.5,0.3,9.1,1,13.8h-5.3c0.7-4.6,1-9.1,1-13.7c0-4.5-0.3-9-1-13.4
						H184.9z"/>
					<path class="st20" d="M189.3,175c0.8,0.1,1.7,0.1,2.7,0.1c1,0,2.1,0,3.2,0s2.2,0,3.2,0c1,0,1.9-0.1,2.7-0.1
						c0.8-0.1,1.4-0.1,1.8-0.2v4.5c-1.9-0.4-3.7-0.7-5.4-0.7c-0.4,3.8-0.6,7.6-0.6,11.4c0,3.8,0.4,7.8,1,11.9h-5.3
						c0.6-4.1,0.9-8.1,1-11.9c0.1-3.8-0.1-7.6-0.6-11.4c-1.7,0.1-3.5,0.3-5.4,0.7v-4.5C187.9,174.9,188.5,174.9,189.3,175z"/>
					<path class="st20" d="M221.1,174.7c-0.6,4.4-1,8.9-1,13.4c0,4.5,0.3,9.1,1,13.7h-5.3c0.3-1.6,0.5-3.1,0.6-4.4
						c0.1-1.4,0.2-2.7,0.3-4h-6.5c0.1,1.3,0.1,2.6,0.3,4c0.1,1.4,0.3,2.8,0.6,4.4h-5.3c0.7-4.6,1-9.1,1-13.7c0-4.5-0.3-9-1-13.4h5.3
						c-0.4,2.5-0.6,4.9-0.8,7.4c-0.2,2.5-0.2,5.1-0.2,8h6.7c0-2.9,0-5.5-0.2-8c-0.2-2.5-0.4-5-0.8-7.4H221.1z"/>
				</g>
				<g>
					<path class="st20" d="M234.8,175c0.8,0.1,1.7,0.1,2.7,0.1c1,0,2.1,0,3.2,0c1.1,0,2.2,0,3.2,0c1,0,1.9-0.1,2.7-0.1
						c0.8-0.1,1.4-0.1,1.8-0.2v4.5c-1.9-0.4-3.7-0.7-5.4-0.7c-0.4,3.8-0.6,7.6-0.6,11.4c0,3.8,0.4,7.8,1,11.9h-5.3
						c0.6-4.1,0.9-8.1,1-11.9c0.1-3.8-0.1-7.6-0.6-11.4c-1.7,0.1-3.5,0.3-5.4,0.7v-4.5C233.4,174.9,234,174.9,234.8,175z"/>
					<path class="st20" d="M266.5,174.7c-0.6,4.4-1,8.9-1,13.4c0,4.5,0.3,9.1,1,13.7h-5.3c0.3-1.6,0.5-3.1,0.6-4.4
						c0.1-1.4,0.2-2.7,0.3-4h-6.5c0.1,1.3,0.1,2.6,0.3,4c0.1,1.4,0.3,2.8,0.6,4.4h-5.3c0.7-4.6,1-9.1,1-13.7c0-4.5-0.3-9-1-13.4h5.3
						c-0.4,2.5-0.6,4.9-0.8,7.4c-0.2,2.5-0.2,5.1-0.2,8h6.7c0-2.9,0-5.5-0.2-8c-0.2-2.5-0.4-5-0.8-7.4H266.5z"/>
					<path class="st20" d="M271.3,174.8c1.1,0.1,2.2,0.2,3.4,0.3c1.2,0.1,2.4,0.1,3.5,0.1c1.1,0,2.2-0.1,3.2-0.1
						c1-0.1,1.8-0.1,2.4-0.3v4.5c-1.4-0.2-2.7-0.4-4-0.5c-1.3-0.1-2.5-0.2-3.6-0.3c-0.1,1-0.2,1.9-0.3,2.8s-0.1,1.8-0.2,2.8
						c-0.1,1-0.1,1.9-0.1,3c0,1,0,2.1,0,3.3c0.7-0.1,1.5-0.1,2.3-0.3c0.8-0.1,1.6-0.3,2.5-0.5v4.5c-0.8-0.2-1.7-0.4-2.5-0.5
						s-1.5-0.2-2.3-0.3c0,0.4,0.1,0.7,0.1,1c0,0.3,0.1,0.7,0.1,1c0,0.4,0.1,0.8,0.1,1.3c0.1,0.5,0.1,1,0.2,1.7
						c1.2-0.1,2.4-0.1,3.6-0.3c1.2-0.1,2.6-0.3,4-0.5v4.5c-1.3-0.2-2.5-0.3-3.6-0.3c-1.1-0.1-2.1-0.1-3.1-0.1c-1,0-1.9,0-2.9,0.1
						c-1,0.1-2,0.2-3,0.3c0.7-4.5,1-9,1.1-13.5C272.3,183.8,272,179.3,271.3,174.8z"/>
				</g>
			</g>
			<g>
				<g>
					<path class="st20" d="M222.1,134.7c0.1,0,0.5,0,1.2-0.1c0.7-0.1,1.7,0,2.8,0.1c1.1,0.1,2.3,0.4,3.5,0.8
						c1.2,0.4,2.4,1.1,3.5,2.1c1.1,1,2,2.3,2.7,3.9c0.7,1.6,1.1,3.7,1.2,6.2c0,2-0.2,3.7-0.6,5.2c-0.4,1.5-0.9,2.7-1.6,3.7
						c-0.7,1-1.5,1.9-2.4,2.5c-0.9,0.6-1.8,1.1-2.7,1.5c-2.2,0.8-4.7,1.2-7.6,1c0.7-4.5,1-9,1-13.5S222.8,139,222.1,134.7z
						 M227,158.3c0.9-0.3,1.8-0.7,2.6-1.3c0.8-0.6,1.6-1.3,2.2-2.2c0.6-0.9,1.1-1.9,1.5-3.1c0.4-1.2,0.5-2.6,0.5-4.1
						c0-1.1-0.2-2.1-0.5-3.2c-0.3-1-0.7-2-1.3-2.9c-0.6-0.9-1.2-1.6-2.1-2.3c-0.8-0.6-1.8-1.1-3-1.4c-0.4,3.3-0.6,6.7-0.6,10.2
						C226.5,151.7,226.6,155.1,227,158.3z"/>
					<path class="st20" d="M251.5,134.6c0.1,0.3,0.2,1.2,0.5,2.7c0.3,1.5,0.7,3.4,1.4,5.8c0.7,2.4,1.5,5.2,2.7,8.3
						c1.1,3.2,2.6,6.6,4.3,10.2h-5.7c-0.2-1-0.3-1.8-0.4-2.6c-0.1-0.7-0.3-1.4-0.4-2.1c-0.1-0.6-0.3-1.3-0.4-1.9
						c-0.2-0.6-0.3-1.2-0.5-1.9H245c-0.2,0.7-0.3,1.3-0.5,1.9c-0.1,0.6-0.3,1.2-0.4,1.9c-0.1,0.6-0.2,1.3-0.3,2.1
						c-0.1,0.7-0.2,1.6-0.4,2.6H238c1-2,1.9-4.2,2.8-6.5c0.9-2.3,1.7-4.6,2.4-7c0.7-2.4,1.4-4.7,1.9-7c0.6-2.3,1-4.5,1.3-6.6H251.5z
						 M252,150c-0.3-0.8-0.5-1.7-0.8-2.6c-0.3-0.8-0.5-1.7-0.8-2.4c-0.3-0.8-0.5-1.5-0.8-2.1c-0.2-0.7-0.5-1.2-0.7-1.7
						c-0.2,0.5-0.4,1.1-0.7,1.7c-0.2,0.7-0.5,1.4-0.7,2.1c-0.3,0.8-0.5,1.6-0.8,2.4c-0.3,0.8-0.5,1.7-0.8,2.6H252z"/>
					<path class="st20" d="M284.4,134.5c-2.4,3.5-4.3,6.5-5.8,9.2c-1.4,2.7-2.5,5-3.1,7.1c-0.6,2.1-0.9,4-0.9,5.8
						c0,1.7,0.3,3.4,0.8,5h-5.3c0.5-1.6,0.8-3.3,0.8-5c0-1.7-0.3-3.7-0.9-5.8c-0.6-2.1-1.7-4.5-3.1-7.1c-1.4-2.6-3.3-5.7-5.7-9.1
						l5.9,0c0.6,1.8,1.2,3.4,1.8,5c0.7,1.6,1.3,3,1.8,4.2c0.6,1.2,1.2,2.5,2,3.9c0.9-1.8,1.6-3.4,2.2-4.6c0.6-1.2,1.1-2.3,1.4-3.3
						c0.4-1,0.7-1.8,1-2.6c0.3-0.8,0.6-1.7,0.9-2.7L284.4,134.5z"/>
				</g>
				<g>
					<path class="st20" d="M156.1,134.8c0.8,0.1,1.7,0.1,2.7,0.1c1,0,2.1,0,3.2,0s2.2,0,3.2,0c1,0,1.9-0.1,2.7-0.1
						c0.8-0.1,1.4-0.1,1.8-0.2v4.5c-1.9-0.4-3.7-0.7-5.4-0.7c-0.4,3.8-0.6,7.6-0.6,11.4c0,3.8,0.4,7.8,1,11.9h-5.3
						c0.6-4.1,0.9-8.1,1-11.9c0.1-3.8-0.1-7.6-0.6-11.4c-1.7,0.1-3.5,0.3-5.4,0.7v-4.5C154.7,134.7,155.3,134.7,156.1,134.8z"/>
					<path class="st20" d="M187.8,134.6c-0.6,4.4-1,8.9-1,13.4c0,4.5,0.3,9.1,1,13.7h-5.3c0.3-1.6,0.5-3.1,0.6-4.4
						c0.1-1.4,0.2-2.7,0.3-4h-6.5c0.1,1.3,0.1,2.6,0.3,4c0.1,1.4,0.3,2.8,0.6,4.4h-5.3c0.7-4.6,1-9.1,1-13.7c0-4.5-0.3-9-1-13.4h5.3
						c-0.4,2.5-0.6,4.9-0.8,7.4c-0.2,2.5-0.2,5.1-0.2,8h6.7c0-2.9,0-5.5-0.2-8c-0.2-2.5-0.4-5-0.8-7.4H187.8z"/>
					<path class="st20" d="M192.6,134.6c1.1,0.1,2.2,0.2,3.4,0.3c1.2,0.1,2.4,0.1,3.5,0.1c1.1,0,2.2-0.1,3.2-0.1
						c1-0.1,1.8-0.1,2.4-0.3v4.5c-1.4-0.2-2.7-0.4-4-0.5c-1.3-0.1-2.5-0.2-3.6-0.3c-0.1,1-0.2,1.9-0.3,2.8s-0.1,1.8-0.2,2.8
						c-0.1,1-0.1,1.9-0.1,3c0,1,0,2.1,0,3.3c0.7-0.1,1.5-0.1,2.3-0.3c0.8-0.1,1.6-0.3,2.5-0.5v4.5c-0.8-0.2-1.7-0.4-2.5-0.5
						c-0.8-0.1-1.5-0.2-2.3-0.3c0,0.4,0.1,0.7,0.1,1s0.1,0.7,0.1,1c0,0.4,0.1,0.8,0.1,1.3c0.1,0.5,0.1,1,0.2,1.7
						c1.2-0.1,2.4-0.1,3.6-0.3c1.2-0.1,2.6-0.3,4-0.5v4.5c-1.3-0.2-2.5-0.3-3.6-0.3s-2.1-0.1-3.1-0.1c-1,0-1.9,0-2.9,0.1
						c-1,0.1-2,0.2-3,0.3c0.7-4.5,1-9,1.1-13.5C193.6,143.6,193.3,139.1,192.6,134.6z"/>
				</g>
			</g>
		</g>
	</g>
</g>
</svg>
